 <svg  version="1.0" xmlns="http://www.w3.org/2000/svg"  width="129.000000pt" height="89.000000pt" viewBox="0 0 129.000000 89.000000"  preserveAspectRatio="xMidYMid meet">  <g transform="translate(0.000000,89.000000) scale(0.100000,-0.100000)" fill="#ffffff" stroke="none"> <path d="M410 580 c-10 -18 -8 -20 25 -20 l36 0 -40 -47 c-40 -48 -57 -81 -65 -129 -5 -25 -4 -25 57 -22 49 2 62 6 65 21 3 14 -4 17 -47 17 -28 0 -51 2 -51 5 0 3 31 43 70 88 38 45 70 88 70 95 0 8 -18 12 -55 12 -44 0 -56 -4 -65 -20z"/> <path d="M570 598 c-1 -2 -11 -55 -24 -118 -13 -63 -22 -116 -21 -118 1 -1 10 0 19 4 9 3 21 26 27 50 11 43 12 44 54 44 l44 0 -10 -32 c-14 -49 -11 -68 9 -68 15 0 21 17 36 93 10 50 20 104 23 120 5 22 2 27 -15 27 -18 0 -22 -8 -28 -50 l-7 -50 -44 0 -45 0 7 33 c4 17 9 40 11 50 4 12 0 17 -15 17 -12 0 -21 -1 -21 -2z"/> <path d="M810 593 c-30 -11 -50 -37 -50 -65 0 -22 7 -33 31 -46 17 -9 40 -24 51 -33 20 -15 20 -16 2 -33 -14 -14 -28 -17 -65 -14 -40 4 -48 2 -52 -13 -4 -14 2 -20 29 -25 49 -9 97 3 123 30 39 42 25 69 -65 122 -17 10 -17 13 -4 28 10 13 25 17 57 14 35 -2 43 0 43 13 0 26 -56 38 -100 22z"/> </g> </svg> 